<svg width="40" height="26" viewBox="0 0 40 26" fill="none" xmlns="http://www.w3.org/2000/svg">
<path d="M38.7054 0H20.641L0.699219 13.8015V25.2727H38.7054L39.9957 24.5158V22.1195L39.1558 21.3209V19.0553L39.9957 18.4329V14.7463L39.2405 14.0228V11.7051L39.9957 11.0596V7.37313L39.2405 6.70524V4.67401L39.9957 3.6866V1.2903C39.9957 0.577651 39.418 0 38.7054 0V0Z" fill="#E5646E"/>
<path d="M20.0234 3.68359H39.9972V7.37019H20.0234V3.68359Z" fill="#F2F2F6"/>
<path d="M20 11.0625L20.6451 14.7491H39.9998V11.0625H20Z" fill="#F2F2F6"/>
<path d="M1.2903 20.6481V14.0781L0 14.7495V18.4361L0.546869 18.9023V21.3241L0 22.1227V24.519C0 25.2317 0.577728 25.8093 1.2903 25.8093H38.7093C39.4218 25.8093 39.9996 25.2316 39.9996 24.519H5.16127C3.02341 24.519 1.2903 22.786 1.2903 20.6481Z" fill="#DB4655"/>
<path d="M20.6449 0H1.2903L0.46875 1.2903L1.2903 14.7463H20.6449V0Z" fill="#5055A0"/>
<path d="M1.2903 0C0.577728 0 0 0.577651 0 1.2903V14.7463H1.2903V0Z" fill="#3F3F8F"/>
<path d="M2.58577 2.87624C2.22914 2.87624 1.9375 2.58733 1.9375 2.23109C1.9375 1.87484 2.22289 1.58594 2.57952 1.58594H2.58585C2.94249 1.58594 3.231 1.87484 3.231 2.23109C3.231 2.58733 2.94233 2.87624 2.58577 2.87624Z" fill="white"/>
<path d="M2.58577 8.03249C2.22914 8.03249 1.9375 7.74358 1.9375 7.38734C1.9375 7.03109 2.22289 6.74219 2.57952 6.74219H2.58585C2.94249 6.74219 3.231 7.03109 3.231 7.38734C3.231 7.74358 2.94233 8.03249 2.58577 8.03249Z" fill="white"/>
<path d="M2.58577 13.2005C2.22914 13.2005 1.9375 12.9116 1.9375 12.5553C1.9375 12.1991 2.22289 11.9102 2.57952 11.9102H2.58585C2.94249 11.9102 3.231 12.1991 3.231 12.5553C3.231 12.9116 2.94233 13.2005 2.58577 13.2005Z" fill="white"/>
<path d="M2.58577 5.45436C2.22914 5.45436 1.9375 5.16546 1.9375 4.80921C1.9375 4.45297 2.22289 4.16406 2.57952 4.16406H2.58585C2.94249 4.16406 3.231 4.45297 3.231 4.80921C3.23092 5.16546 2.94233 5.45436 2.58577 5.45436Z" fill="#F2F2F6"/>
<path d="M2.58577 10.6184C2.22914 10.6184 1.9375 10.3295 1.9375 9.97327C1.9375 9.61703 2.22289 9.32812 2.57952 9.32812H2.58585C2.94249 9.32812 3.231 9.61703 3.231 9.97327C3.231 10.3295 2.94233 10.6184 2.58577 10.6184Z" fill="#F2F2F6"/>
<path d="M18.0701 2.87624C17.7135 2.87624 17.4219 2.58733 17.4219 2.23109C17.4219 1.87484 17.7073 1.58594 18.0639 1.58594H18.0702C18.4269 1.58594 18.7154 1.87484 18.7154 2.23109C18.7154 2.58733 18.4268 2.87624 18.0701 2.87624V2.87624Z" fill="white"/>
<path d="M18.0701 8.03249C17.7135 8.03249 17.4219 7.74358 17.4219 7.38734C17.4219 7.03109 17.7073 6.74219 18.0639 6.74219H18.0702C18.4269 6.74219 18.7154 7.03109 18.7154 7.38734C18.7154 7.74358 18.4268 8.03249 18.0701 8.03249V8.03249Z" fill="white"/>
<path d="M18.0701 13.2005C17.7135 13.2005 17.4219 12.9116 17.4219 12.5553C17.4219 12.1991 17.7073 11.9102 18.0639 11.9102H18.0702C18.4269 11.9102 18.7154 12.1991 18.7154 12.5553C18.7154 12.9116 18.4268 13.2005 18.0701 13.2005V13.2005Z" fill="white"/>
<path d="M18.078 5.44264C17.7213 5.44264 17.4297 5.15374 17.4297 4.79749C17.4297 4.44125 17.7151 4.15234 18.0717 4.15234H18.078C18.4347 4.15234 18.7232 4.44125 18.7232 4.79749C18.7232 5.15374 18.4346 5.44264 18.078 5.44264V5.44264Z" fill="#F2F2F6"/>
<path d="M18.078 10.6067C17.7213 10.6067 17.4297 10.3178 17.4297 9.96156C17.4297 9.60531 17.7151 9.31641 18.0717 9.31641H18.078C18.4347 9.31641 18.7232 9.60531 18.7232 9.96156C18.7232 10.3178 18.4346 10.6067 18.078 10.6067V10.6067Z" fill="#F2F2F6"/>
<path d="M6.46077 2.86842C6.10414 2.86842 5.8125 2.57952 5.8125 2.22327C5.8125 1.86703 6.09789 1.57812 6.45452 1.57812H6.46085C6.81749 1.57812 7.106 1.86703 7.106 2.22327C7.106 2.57952 6.81741 2.86842 6.46077 2.86842Z" fill="#F2F2F6"/>
<path d="M6.46077 8.03249C6.10414 8.03249 5.8125 7.74358 5.8125 7.38734C5.8125 7.03109 6.09789 6.74219 6.45452 6.74219H6.46085C6.81749 6.74219 7.106 7.03109 7.106 7.38734C7.106 7.74358 6.81741 8.03249 6.46077 8.03249Z" fill="#F2F2F6"/>
<path d="M6.46077 13.1887C6.10414 13.1887 5.8125 12.8998 5.8125 12.5436C5.8125 12.1873 6.09789 11.8984 6.45452 11.8984H6.46085C6.81749 11.8984 7.106 12.1873 7.106 12.5436C7.106 12.8998 6.81741 13.1887 6.46077 13.1887Z" fill="#F2F2F6"/>
<path d="M6.45687 5.45436C6.10023 5.45436 5.80859 5.16546 5.80859 4.80921C5.80859 4.45297 6.09398 4.16406 6.45062 4.16406H6.45695C6.81358 4.16406 7.1021 4.45297 7.1021 4.80921C7.10202 5.16546 6.81351 5.45436 6.45687 5.45436Z" fill="white"/>
<path d="M6.45687 10.6184C6.10023 10.6184 5.80859 10.3295 5.80859 9.97327C5.80859 9.61703 6.09398 9.32812 6.45062 9.32812H6.45695C6.81358 9.32812 7.1021 9.61703 7.1021 9.97327C7.1021 10.3295 6.81351 10.6184 6.45687 10.6184Z" fill="white"/>
<path d="M4.52327 4.16921C4.16664 4.16921 3.875 3.8803 3.875 3.52406C3.875 3.16781 4.16039 2.87891 4.51702 2.87891H4.52335C4.87999 2.87891 5.1685 3.16781 5.1685 3.52406C5.16842 3.88038 4.87991 4.16921 4.52327 4.16921Z" fill="white"/>
<path d="M4.52327 9.32936C4.16664 9.32936 3.875 9.04046 3.875 8.68421C3.875 8.32797 4.16039 8.03906 4.51702 8.03906H4.52335C4.87999 8.03906 5.1685 8.32797 5.1685 8.68421C5.1685 9.04046 4.87991 9.32936 4.52327 9.32936Z" fill="white"/>
<path d="M4.52327 6.74733C4.16664 6.74733 3.875 6.45843 3.875 6.10218C3.875 5.74593 4.16039 5.45703 4.51702 5.45703H4.52335C4.87999 5.45703 5.1685 5.74593 5.1685 6.10218C5.1685 6.45843 4.87991 6.74733 4.52327 6.74733Z" fill="#F2F2F6"/>
<path d="M4.52327 11.9075C4.16664 11.9075 3.875 11.6186 3.875 11.2623C3.875 10.9061 4.16039 10.6172 4.51702 10.6172H4.52335C4.87999 10.6172 5.1685 10.9061 5.1685 11.2623C5.1685 11.6186 4.87991 11.9075 4.52327 11.9075Z" fill="#F2F2F6"/>
<path d="M10.328 2.87624C9.97133 2.87624 9.67969 2.58733 9.67969 2.23109C9.67969 1.87484 9.96508 1.58594 10.3217 1.58594H10.328C10.6847 1.58594 10.9732 1.87484 10.9732 2.23109C10.9732 2.58733 10.6845 2.87624 10.328 2.87624V2.87624Z" fill="white"/>
<path d="M10.328 8.03249C9.97133 8.03249 9.67969 7.74358 9.67969 7.38734C9.67969 7.03109 9.96508 6.74219 10.3217 6.74219H10.328C10.6847 6.74219 10.9732 7.03109 10.9732 7.38734C10.9732 7.74358 10.6845 8.03249 10.328 8.03249V8.03249Z" fill="white"/>
<path d="M10.328 13.2005C9.97133 13.2005 9.67969 12.9116 9.67969 12.5553C9.67969 12.1991 9.96508 11.9102 10.3217 11.9102H10.328C10.6847 11.9102 10.9732 12.1991 10.9732 12.5553C10.9732 12.9116 10.6845 13.2005 10.328 13.2005V13.2005Z" fill="white"/>
<path d="M10.328 5.45436C9.97133 5.45436 9.67969 5.16546 9.67969 4.80921C9.67969 4.45297 9.96508 4.16406 10.3217 4.16406H10.328C10.6847 4.16406 10.9732 4.45297 10.9732 4.80921C10.9731 5.16546 10.6845 5.45436 10.328 5.45436V5.45436Z" fill="#F2F2F6"/>
<path d="M10.328 10.6184C9.97133 10.6184 9.67969 10.3295 9.67969 9.97327C9.67969 9.61703 9.96508 9.32812 10.3217 9.32812H10.328C10.6847 9.32812 10.9732 9.61703 10.9732 9.97327C10.9732 10.3295 10.6845 10.6184 10.328 10.6184V10.6184Z" fill="#F2F2F6"/>
<path d="M8.39046 4.16921C8.03382 4.16921 7.74219 3.8803 7.74219 3.52406C7.74219 3.16781 8.02758 2.87891 8.38421 2.87891H8.39054C8.74718 2.87891 9.03569 3.16781 9.03569 3.52406C9.03569 3.88038 8.7471 4.16921 8.39046 4.16921Z" fill="#F2F2F6"/>
<path d="M8.39046 9.32936C8.03382 9.32936 7.74219 9.04046 7.74219 8.68421C7.74219 8.32797 8.02758 8.03906 8.38421 8.03906H8.39054C8.74718 8.03906 9.03569 8.32797 9.03569 8.68421C9.03569 9.04046 8.7471 9.32936 8.39046 9.32936Z" fill="#F2F2F6"/>
<path d="M8.39046 6.74733C8.03382 6.74733 7.74219 6.45843 7.74219 6.10218C7.74219 5.74593 8.02758 5.45703 8.38421 5.45703H8.39054C8.74718 5.45703 9.03569 5.74593 9.03569 6.10218C9.03569 6.45843 8.7471 6.74733 8.39046 6.74733Z" fill="white"/>
<path d="M8.39046 11.9075C8.03382 11.9075 7.74219 11.6186 7.74219 11.2623C7.74219 10.9061 8.02758 10.6172 8.38421 10.6172H8.39054C8.74718 10.6172 9.03569 10.9061 9.03569 11.2623C9.03569 11.6186 8.7471 11.9075 8.39046 11.9075Z" fill="white"/>
<path d="M14.1912 2.87624C13.8346 2.87624 13.543 2.58733 13.543 2.23109C13.543 1.87484 13.8284 1.58594 14.185 1.58594H14.1913C14.548 1.58594 14.8365 1.87484 14.8365 2.23109C14.8365 2.58733 14.5479 2.87624 14.1912 2.87624V2.87624Z" fill="#F2F2F6"/>
<path d="M14.1912 8.03249C13.8346 8.03249 13.543 7.74358 13.543 7.38734C13.543 7.03109 13.8284 6.74219 14.185 6.74219H14.1913C14.548 6.74219 14.8365 7.03109 14.8365 7.38734C14.8365 7.74358 14.5479 8.03249 14.1912 8.03249V8.03249Z" fill="#F2F2F6"/>
<path d="M14.1912 13.2005C13.8346 13.2005 13.543 12.9116 13.543 12.5553C13.543 12.1991 13.8284 11.9102 14.185 11.9102H14.1913C14.548 11.9102 14.8365 12.1991 14.8365 12.5553C14.8365 12.9116 14.5479 13.2005 14.1912 13.2005V13.2005Z" fill="#F2F2F6"/>
<path d="M14.1912 5.45436C13.8346 5.45436 13.543 5.16546 13.543 4.80921C13.543 4.45297 13.8284 4.16406 14.185 4.16406H14.1913C14.548 4.16406 14.8365 4.45297 14.8365 4.80921C14.8364 5.16546 14.5479 5.45436 14.1912 5.45436V5.45436Z" fill="white"/>
<path d="M14.1912 10.6184C13.8346 10.6184 13.543 10.3295 13.543 9.97327C13.543 9.61703 13.8284 9.32812 14.185 9.32812H14.1913C14.548 9.32812 14.8365 9.61703 14.8365 9.97327C14.8365 10.3295 14.5479 10.6184 14.1912 10.6184V10.6184Z" fill="white"/>
<path d="M12.2616 4.16921C11.9049 4.16921 11.6133 3.8803 11.6133 3.52406C11.6133 3.16781 11.8987 2.87891 12.2553 2.87891H12.2616C12.6183 2.87891 12.9068 3.16781 12.9068 3.52406C12.9067 3.88038 12.6182 4.16921 12.2616 4.16921V4.16921Z" fill="white"/>
<path d="M12.2616 9.32936C11.9049 9.32936 11.6133 9.04046 11.6133 8.68421C11.6133 8.32797 11.8987 8.03906 12.2553 8.03906H12.2616C12.6183 8.03906 12.9068 8.32797 12.9068 8.68421C12.9068 9.04046 12.6182 9.32936 12.2616 9.32936V9.32936Z" fill="white"/>
<path d="M12.2616 6.74733C11.9049 6.74733 11.6133 6.45843 11.6133 6.10218C11.6133 5.74593 11.8987 5.45703 12.2553 5.45703H12.2616C12.6183 5.45703 12.9068 5.74593 12.9068 6.10218C12.9068 6.45843 12.6182 6.74733 12.2616 6.74733V6.74733Z" fill="#F2F2F6"/>
<path d="M12.2616 11.9075C11.9049 11.9075 11.6133 11.6186 11.6133 11.2623C11.6133 10.9061 11.8987 10.6172 12.2553 10.6172H12.2616C12.6183 10.6172 12.9068 10.9061 12.9068 11.2623C12.9068 11.6186 12.6182 11.9075 12.2616 11.9075V11.9075Z" fill="#F2F2F6"/>
<path d="M16.1326 4.16921C15.776 4.16921 15.4844 3.8803 15.4844 3.52406C15.4844 3.16781 15.7698 2.87891 16.1264 2.87891H16.1327C16.4894 2.87891 16.7779 3.16781 16.7779 3.52406C16.7778 3.88038 16.4893 4.16921 16.1326 4.16921V4.16921Z" fill="#F2F2F6"/>
<path d="M16.1326 9.32936C15.776 9.32936 15.4844 9.04046 15.4844 8.68421C15.4844 8.32797 15.7698 8.03906 16.1264 8.03906H16.1327C16.4894 8.03906 16.7779 8.32797 16.7779 8.68421C16.7779 9.04046 16.4893 9.32936 16.1326 9.32936V9.32936Z" fill="#F2F2F6"/>
<path d="M16.1326 6.74733C15.776 6.74733 15.4844 6.45843 15.4844 6.10218C15.4844 5.74593 15.7698 5.45703 16.1264 5.45703H16.1327C16.4894 5.45703 16.7779 5.74593 16.7779 6.10218C16.7779 6.45843 16.4893 6.74733 16.1326 6.74733V6.74733Z" fill="white"/>
<path d="M16.1326 11.9075C15.776 11.9075 15.4844 11.6186 15.4844 11.2623C15.4844 10.9061 15.7698 10.6172 16.1264 10.6172H16.1327C16.4894 10.6172 16.7779 10.9061 16.7779 11.2623C16.7779 11.6186 16.4893 11.9075 16.1326 11.9075V11.9075Z" fill="white"/>
<path d="M0.230469 21.0547L1.57889 22.1202H39.9957V18.4336H1.2864L0.230469 21.0547Z" fill="#F2F2F6"/>
<path d="M0 18.4337V22.1203H1.5828C1.39522 21.6656 1.29038 21.168 1.29038 20.6456V18.4336H0L0 18.4337Z" fill="#E1E1E6"/>
</svg>